<?xml version="1.0" encoding="utf-8"?>
<!-- Generator: Adobe Illustrator 23.0.1, SVG Export Plug-In . SVG Version: 6.00 Build 0)  -->
<svg version="1.1" id="Layer_1" xmlns="http://www.w3.org/2000/svg" xmlns:xlink="http://www.w3.org/1999/xlink" x="0px" y="0px"
	 viewBox="0 0 512 512" style="enable-background:new 0 0 512 512;" xml:space="preserve">
<style type="text/css">
	.st0{fill:#FFFFFF;}
</style>
<path class="st0" d="M42.7,512c-0.3,0-0.6,0-0.9,0c-12.8-0.2-23.3-16.5-25-38.7c-1-12.7-3.4-25-6.1-38c-2.3-11.6-4.8-23.6-6-35.9
	C-0.7,345.5-3.5,281.7,16,217.8c1.1-3.6,2.3-7.2,3.5-10.8c8-23.2,16.9-40.8,28.1-55.4c28.9-37.9,78.7-54.5,152.5-50.6
	c25.9,1.4,67.1,7,92,12.6c23,5.2,46.8,7,70.8,5.4c35.2-2.3,75.4-12.4,97.7-24.5c13.1-7.1,28.7-5.2,39.7,5c10.8,9.9,13.9,24.9,8,38.2
	c-7.8,17.7-24.5,39.3-49.5,64.1c-7,6.9-16.1,16.1-24.7,25.8C411,253.3,327.4,341.7,218.9,397c-21.8,11.1-43.8,18.8-65.3,22.7
	c-22.2,4.1-52.3,16.7-69.7,53.3c-0.5,1.1-0.9,2.6-1.4,4.5C79.3,487.8,72.3,512,42.7,512L42.7,512z M32.3,222.8
	c-18.7,61.1-15.8,122.7-10.6,174.9c1.1,11.4,3.5,23,5.7,34.3c2.6,13,5.3,26.3,6.4,40.1c1.1,14.4,6.6,22.2,8.7,23
	c15.6,0,19.7-9.5,23.5-22.3c0.8-2.7,1.5-5,2.4-7c21.6-45.4,60.7-58.8,82-62.8c19.9-3.7,40.3-10.8,60.7-21.2
	c105.9-53.9,187.7-140.4,210.2-165.6c8.9-10,18.3-19.4,25.4-26.5c23.5-23.3,39-43.2,45.9-58.9c3.5-7.9,0.2-14.9-4-18.8
	c-4.4-4.1-12-6.9-19.9-2.5C440.3,125,395.6,134,364,136.1c-25.7,1.6-51.1-0.3-75.7-5.8c-24.1-5.4-64-10.9-89.1-12.2
	c-68.7-3.6-112.5,10.3-138,43.9c-10,13.1-18.1,29.2-25.5,50.6C34.5,215.9,33.4,219.3,32.3,222.8L32.3,222.8z"/>
<path class="st0" d="M59,426.7c-0.7,0-1.5-0.1-2.2-0.3c-3.2-0.8-5.6-3.4-6.2-6.6c-0.1-0.7-0.4-2-0.8-3.6
	c-3.9-17.4-15.8-70.4-7.7-110.6c0.9-4.6,5.4-7.6,10-6.7c4.6,0.9,7.6,5.4,6.7,10c-4.4,22.1-2.7,53,5.1,91.7c30-28,64.2-37,78.7-39.7
	c17.1-3.1,35.1-11.6,49-18.7c4.2-2.1,9.3-0.5,11.5,3.7c2.1,4.2,0.5,9.3-3.7,11.5c-14.9,7.6-34.4,16.7-53.6,20.3
	c-14.6,2.7-51.6,12.6-80.3,46C63.9,425.6,61.5,426.7,59,426.7L59,426.7z"/>
<path class="st0" d="M59,247.5c-0.9,0-1.9-0.2-2.8-0.5c-4.5-1.5-6.8-6.4-5.3-10.9c6.3-18.3,22.1-47.6,30.6-58.7
	c17-22.4,46.9-32.3,96.9-32.3c4.7,0,8.5,3.8,8.5,8.5c0,4.7-3.8,8.5-8.5,8.5c-44.2,0-69.9,7.9-83.4,25.6c-7.6,9.9-22.3,37.3-28,54
	C65.9,245.3,62.6,247.5,59,247.5z"/>
<path class="st0" d="M272.4,93.9c-4.7,0-8.5-3.8-8.5-8.5c0-23.5-19.1-42.7-42.7-42.7c-4.7,0-8.5-3.8-8.5-8.5s3.8-8.5,8.5-8.5
	c32.9,0,59.7,26.8,59.7,59.7C280.9,90,277.1,93.9,272.4,93.9L272.4,93.9z"/>
<path class="st0" d="M306.5,93.9c-4.7,0-8.5-3.8-8.5-8.5c0-4.7,3.8-8.5,8.5-8.5c23.5,0,42.7-19.1,42.7-42.7c0-4.7,3.8-8.5,8.5-8.5
	c4.7,0,8.5,3.8,8.5,8.5C366.2,67.1,339.4,93.9,306.5,93.9z"/>
<path class="st0" d="M306.5,341.3c-2,0-4-0.7-5.7-2.2c-3.5-3.1-3.8-8.5-0.7-12c62.6-70.4,18.5-131.7,16.6-134.3
	c-2.8-3.8-2-9.1,1.7-11.9c3.8-2.8,9.1-2,11.9,1.7c0.6,0.7,54.6,74.8-17.5,155.9C311.2,340.4,308.8,341.3,306.5,341.3L306.5,341.3z"
	/>
<path class="st0" d="M306.5,133.5c-0.4,0-0.9,0-1.3-0.1c-5.6-0.9-11.3-1.9-16.8-3.1c-5.2-1.2-11.2-2.3-17.5-3.4
	c-4.1-0.7-7-4.3-7-8.4V25.6c0-14.1,11.5-25.6,25.6-25.6S315,11.5,315,25.6v99.3c0,2.5-1.1,4.9-3,6.5
	C310.5,132.8,308.5,133.5,306.5,133.5z M292.1,113.6c2,0.4,3.9,0.8,5.9,1.2V25.6c0-4.7-3.8-8.5-8.5-8.5c-4.7,0-8.5,3.8-8.5,8.5v85.7
	C284.9,112,288.6,112.8,292.1,113.6z"/>
<path class="st0" d="M246.8,512c-14.1,0-25.6-11.5-25.6-25.6V381.5c0-3.1,1.7-6,4.4-7.5c11.1-6.1,22.4-12.7,33.7-19.9
	c2.6-1.7,6-1.8,8.7-0.3s4.4,4.4,4.4,7.5v125.1C272.4,500.5,260.9,512,246.8,512L246.8,512z M238.2,386.5v99.8c0,4.7,3.8,8.5,8.5,8.5
	s8.5-3.8,8.5-8.5V376.6C249.6,380.1,243.9,383.4,238.2,386.5z"/>
<path class="st0" d="M118.1,124.6c-2.8,0-5.4-1.3-7-3.7c-8-11.6-21.1-18.6-35-18.6h-8.5C53.4,102.4,42,90.9,42,76.8
	s11.5-25.6,25.6-25.6h8.5c36.8,0,70.3,21.7,85.5,55.3c1.1,2.5,1,5.4-0.4,7.8c-1.4,2.4-3.9,4-6.6,4.2c-12.4,1.1-23.9,3-34.2,5.8
	C119.6,124.6,118.9,124.6,118.1,124.6z M67.6,68.3c-4.7,0-8.5,3.8-8.5,8.5c0,4.7,3.8,8.5,8.5,8.5h8.5c17.5,0,34.1,7.8,45.4,21.1
	c6-1.4,12.2-2.6,18.8-3.5c-14.1-21.4-38.1-34.7-64.1-34.7H67.6z"/>
<path class="st0" d="M400.4,401.1h-17.1c-40,0-75.7-25.5-88.7-63.4c-1.2-3.5,0-7.4,3-9.7c9.7-7.1,19.6-14.7,29.4-22.6
	c2.4-2,5.8-2.4,8.7-1.2c2.9,1.2,4.9,3.9,5.2,7.1c2.1,22,20.3,38.7,42.5,38.7h17.1c14.1,0,25.6,11.5,25.6,25.6
	S414.5,401.1,400.4,401.1L400.4,401.1z M312.9,337.9c12.1,27.8,39.7,46.1,70.3,46.1h17.1c4.7,0,8.5-3.8,8.5-8.5
	c0-4.7-3.8-8.5-8.5-8.5h-17.1c-26,0-48.1-16.3-56.3-39.8C322.3,330.8,317.6,334.4,312.9,337.9z"/>
</svg>
