<?xml version="1.0" encoding="utf-8"?>
<!-- Generator: Adobe Illustrator 23.0.1, SVG Export Plug-In . SVG Version: 6.00 Build 0)  -->
<svg version="1.1" id="Capa_1" xmlns="http://www.w3.org/2000/svg" xmlns:xlink="http://www.w3.org/1999/xlink" x="0px" y="0px"
	 viewBox="0 0 512 512" style="enable-background:new 0 0 512 512;" xml:space="preserve">
<style type="text/css">
	.st0{fill:#FFFFFF;}
</style>
<g>
	<g>
		<path class="st0" d="M367.6,86c-0.2-13.8-5.6-27.1-15.1-37.2C326,18.5,287.8,0.7,247.5,0c-83.7,0-128,47.2-128,136.5
			c0,51.3,26.1,110.9,59.7,110.9c8.5,0.1,16.9-1.9,24.5-5.9c4.6,3.8,9.5,7.3,14.6,10.5c-2.3,4-4.8,8-7.4,12.2
			c-29-3.6-67.3-7.4-100-8.1V42.7C110.9,19.1,91.8,0,68.3,0S25.6,19.1,25.6,42.7v426.7c0,23.6,19.1,42.6,42.7,42.7
			c23.6,0,42.6-19.1,42.7-42.7V315.8c22.4,0,44.8,1.8,67,5.4c-17,38.6-25.3,80.4-24.3,122.5v59.7c0,2.3,0.9,4.4,2.5,6
			c1.6,1.6,3.8,2.5,6,2.5h34.1c2.3,0,4.4-0.9,6-2.5c1.6-1.6,2.5-3.8,2.5-6c-0.7-27.3,2.8-54.6,10.5-80.8
			c11.4,65.3,74.7,89.3,134.5,89.3c68,0,136.5-68.6,136.5-221.9C486.4,178.7,413.9,115.2,367.6,86z M213.1,187.4l-0.2,2.3
			c-0.1,1.8-0.3,3.5-0.6,5.2l-0.3,2.3c-0.3,1.6-0.5,3.1-0.9,4.9l-0.3,1.5c-0.5,1.9-1,3.6-1.6,5.5c-0.6,1.6-1.2,3.2-2,4.8
			c0,0-0.4,0.8-0.4,0.8c-0.6,1.1-1.2,2.2-1.9,3.2l-0.6,0.9c-0.6,0.9-1.3,1.7-2,2.5l-0.6,0.7c-0.8,0.9-1.8,1.8-2.7,2.6l-0.1,0.1
			c-5.6,4.3-12.6,6.4-19.7,6c-18.6,0-42.7-45.5-42.7-93.9c0-80.4,36.3-119.5,110.9-119.5c34.4,0,65.6,14.6,92.7,43.5
			c7.4,7.6,11.2,18.1,10.4,28.7c0,0.2-0.1,0.5-0.1,0.7c-0.7,8.1-3.7,15.8-8.8,22.2l0,0c-1.7,2.1-3.5,4-5.6,5.8
			c-0.2,0.1-0.4,0.3-0.5,0.4c-0.6,0.5-1.1,0.9-1.7,1.3c-0.8,0.6-1.6,1.1-2.5,1.7c-0.1,0.1-0.3,0.2-0.4,0.2c-1.7,1-3.4,1.8-5.2,2.6
			c-0.6,0.2-1.2,0.4-1.7,0.6c-1.3,0.4-2.7,0.8-4,1.1c-1.1,0.2-2.2,0.5-3.4,0.6c-0.7,0.1-1.5,0.2-2.3,0.2c-2,0.1-4,0.1-6,0
			c-9.2-0.8-18.2-2.5-27-5c-0.7-9.3-4.4-18.2-10.6-25.3c-3.3-3.3-8.7-3.3-12,0.1c-3.3,3.3-3.3,8.7-0.1,12c4,5.7,6.1,12.6,6,19.6
			c0,32.8-37.5,41.5-43.3,42.6c-9.3-0.1-23.6-2.2-27.4-6c-3.3-3.3-8.7-3.3-12,0s-3.3,8.7,0,12C190.8,183.4,201.8,187.2,213.1,187.4
			L213.1,187.4z M68.3,17.1c14.1,0,25.6,11.5,25.6,25.6c0,4.2,0,17.1-25.6,17.1S42.7,46.9,42.7,42.7C42.7,28.5,54.1,17.1,68.3,17.1z
			 M93.9,469.3c0,14.1-11.5,25.6-25.6,25.6s-25.6-11.5-25.6-25.6V71.4c8,3.8,16.8,5.7,25.6,5.4c8.8,0.3,17.6-1.6,25.6-5.4v184.8
			c-0.6,0-1.1,0.1-1.7,0.1c-0.7,0.1-1.3,0.1-2,0.2c-1.3,0.1-2.6,0.3-3.9,0.5c-0.5,0.1-1.1,0.1-1.6,0.2c-1.7,0.3-3.5,0.7-5.2,1.2
			c-0.4,0.1-0.7,0.2-1,0.4c-1.3,0.4-2.5,0.9-3.7,1.4c-0.5,0.2-1,0.5-1.5,0.8c-0.9,0.5-1.8,1-2.7,1.6c-0.5,0.3-0.9,0.7-1.4,1
			c-0.8,0.7-1.5,1.4-2.1,2.2c-0.3,0.4-0.7,0.7-0.9,1.2c-0.9,1.3-1.6,2.7-2,4.2c-0.3,1-0.5,2-0.5,3c0,0.3,0,0.7,0,1
			c0,0.7,0,1.4,0.1,2.1c0,0.4,0.1,0.8,0.2,1.2c0.1,0.6,0.2,1.3,0.4,1.9c0.1,0.4,0.3,0.8,0.4,1.3c0.2,0.6,0.4,1.2,0.7,1.8
			c0.2,0.4,0.4,0.8,0.6,1.3c0.3,0.6,0.6,1.2,1,1.8c0.2,0.4,0.5,0.8,0.8,1.2c0.4,0.6,0.8,1.2,1.2,1.8c0.3,0.4,0.6,0.8,0.9,1.2
			c0.5,0.6,1,1.2,1.5,1.8c0.3,0.4,0.6,0.7,0.9,1.1c0.6,0.7,1.2,1.4,1.9,2c0.2,0.3,0.5,0.5,0.7,0.8c0.9,0.9,1.8,1.8,2.8,2.7l0.3,0.3
			c0.9,0.8,1.7,1.6,2.6,2.3c0.3,0.3,0.7,0.6,1,0.8c0.6,0.5,1.3,1.1,1.9,1.6c0.4,0.3,0.8,0.6,1.2,0.9c0.6,0.5,1.2,0.9,1.8,1.4
			c0.4,0.3,0.9,0.6,1.3,1c0.5,0.4,1.1,0.8,1.6,1.2c0.4,0.3,0.9,0.6,1.3,0.9c0.5,0.3,1,0.7,1.4,1c0.4,0.3,0.9,0.6,1.3,0.9l0.4,0.3
			L93.9,469.3L93.9,469.3z M105,298.7c-0.5-0.3-0.9-0.6-1.4-0.9c-0.8-0.5-1.5-1-2.3-1.6c-0.7-0.5-1.5-1.1-2.2-1.6
			c-0.7-0.5-1.4-1.1-2.1-1.6c-0.7-0.6-1.4-1.1-2.1-1.7c-0.6-0.5-1.3-1-1.9-1.5c-0.7-0.6-1.4-1.2-2-1.8c-0.6-0.5-1.1-1-1.6-1.4
			c-0.7-0.6-1.3-1.2-1.9-1.8c-0.4-0.4-0.9-0.9-1.3-1.3c-0.6-0.6-1.1-1.2-1.6-1.8c-0.3-0.4-0.7-0.7-1-1.1c-0.5-0.6-0.9-1.2-1.3-1.7
			c-0.2-0.2-0.4-0.5-0.5-0.7c-0.4-0.6-0.7-1.3-1-2c6.9-2.8,14.3-3.9,21.7-3.1c32.9,0.6,65.7,2.9,98.3,7.1
			c-4.8,7.5-9.8,15.7-14.7,24.8l-0.2,0.3C159.1,300.6,132.1,298.4,105,298.7z M226.3,360.2c-0.9,1.3-1.7,2.6-2.5,4
			c-1.5,2.5-2.8,5-4,7.6c-0.2,0.3-0.3,0.6-0.5,1c-1.5,3.5-2.7,7.1-3.7,10.8c0,0.1-0.1,0.2-0.1,0.3c-17.5,24.4-26.8,61.7-27.7,111.2
			h-17.1v-51.2c-1.3-43.3,8-86.2,27.3-125c0-0.1,0.1-0.1,0.1-0.2c6.7-12.7,14-25,21.9-36.9l0.1-0.1l0.1-0.1l0.6-0.9l1.7-2.6l0.1-0.1
			c3.9-6,7.6-11.9,10.9-17.7l0.1,0c10,4.7,20.4,8.5,31.2,11.2c-0.2,18.4,1.8,36.8,5.9,54.8c-0.2,0.1-0.4,0.1-0.5,0.2
			c-1.8,0.6-3.6,1.3-5.5,2.1c-0.9,0.4-1.9,0.8-2.8,1.2c-1.6,0.8-3.3,1.6-4.9,2.6c-1.6,0.9-3.1,1.8-4.7,2.8c-0.2,0.2-0.5,0.3-0.7,0.5
			c-8.3,5.4-15.6,12.1-21.7,19.9C228.5,357,227.4,358.6,226.3,360.2z M349.9,494.9c-57.8,0-119.5-24.7-119.5-93.9
			c0-4,0.5-7.9,1.4-11.8l0,0c0.4-1.8,0.9-3.6,1.5-5.4l0.1-0.2c4-11,10.8-20.8,19.9-28.3c0.7-0.6,1.4-1.2,2.1-1.8
			c0.3-0.3,0.7-0.5,1.1-0.8c6.2-4.9,13.3-8.6,20.8-10.9c10.5,15.7,28.2,25.1,47.1,24.9c4.7,0,8.5-3.8,8.5-8.5s-3.8-8.5-8.5-8.5
			c-14.7,0.3-28.3-7.8-35-20.8c-0.3-0.7-7.7-17.7-7.7-64.5c-0.6-9.2,2.7-18.3,9.3-24.8c6.5-6.5,15.6-9.9,24.8-9.3
			c4.7,0,8.5-3.8,8.5-8.5s-3.8-8.5-8.5-8.5c-24.6-1.2-46.3,16.3-50.3,40.6c-0.9-0.3-1.8-0.5-2.9-0.8c-0.5-0.1-1-0.3-1.4-0.4
			c-1.4-0.4-2.8-0.9-4.4-1.4c-0.4-0.1-0.7-0.2-1.1-0.4c-1.9-0.7-3.9-1.4-6-2.2c-0.4-0.2-0.8-0.3-1.2-0.5c-4.9-2-9.6-4.2-14.3-6.7
			c-6.1-3.2-11.9-7-17.4-11.2c0.2-0.2,0.3-0.5,0.5-0.7c0.3-0.4,0.6-0.8,0.9-1.3l0.9-1.3c0.3-0.4,0.5-0.9,0.7-1.3
			c0.6-1,1.2-1.9,1.7-3c0.1-0.2,0.3-0.4,0.4-0.6c0.1-0.1,0.4-0.8,0.5-1c1-1.9,1.8-3.9,2.5-5.9c0.1-0.2,0.3-0.7,0.4-0.9
			c0.2-0.5,0.3-1.1,0.5-1.7c0.3-1,0.6-2,0.9-3c0.2-0.7,0.4-1.4,0.6-2.2l0.5-2.2l0.1-0.3c0.2-1,0.4-2.1,0.6-3.1
			c0.1-0.7,0.3-1.3,0.4-2.1c0.1-0.9,0.3-1.9,0.4-2.7l0-0.4c0.2-1.2,0.3-2.5,0.4-3.8c0.1-0.6,0.1-1.2,0.2-1.8l0.2-2.7
			c0-0.6,0.1-1.1,0.1-1.7c0-0.2,0-0.4,0-0.6c2.2-0.6,4.5-1.3,6.9-2.2c0.1,0,0.2-0.1,0.3-0.1c10.2-3.7,19.5-9.4,27.3-16.8
			c0.7-0.7,1.5-1.3,2.2-2c0.8-0.8,1.4-1.8,2.2-2.7c1.3-1.5,2.6-3,3.7-4.7c0.1-0.1,0.1-0.2,0.2-0.3c3.6-5.5,6.1-11.6,7.4-18
			c8.6,2.2,17.4,3.7,26.2,4.5c2.6,0.2,5.3,0.2,7.9,0.1c0.4,0,0.7,0,1.1-0.1c11.5-0.8,22.5-5.2,31.3-12.7c1.2-1,2.2-2.1,3.3-3.2
			c0.7-0.7,1.5-1.4,2.2-2.1c0.7-0.8,1.3-1.6,1.9-2.4c2.9-3.5,5.4-7.3,7.4-11.3c1.1-2.4,2.1-4.8,2.9-7.3
			c43.2,28.9,104.5,87.3,104.5,185.6C469.3,431.6,409.3,494.9,349.9,494.9z"/>
	</g>
</g>
</svg>
