<?xml version="1.0" encoding="utf-8"?>
<!-- Generator: Adobe Illustrator 23.0.1, SVG Export Plug-In . SVG Version: 6.00 Build 0)  -->
<svg version="1.1" id="Layer_1" xmlns="http://www.w3.org/2000/svg" xmlns:xlink="http://www.w3.org/1999/xlink" x="0px" y="0px"
	 viewBox="0 0 495 495" style="enable-background:new 0 0 495 495;" xml:space="preserve">
<style type="text/css">
	.st0{fill:#FFFFFF;}
</style>
<path class="st0" d="M475.4,23.9l-3.3,3.8c-34.2,39.1-81.3,64.9-132.6,72.8c-14.7,2.3-29.2,5.9-43.2,10.9l-90.6,32.1
	c1.2-4.8,1.8-10.2,1.8-15.9c0-22.8-10.3-39.9-24-39.9c-46.6,0-91.6,20.5-126.6,57.7C18.2,186.9-3,244.4,0.4,299.1
	C6.2,393.8,85.2,469.3,180.2,471c1.1,0,2.2,0,3.3,0c57.1,0,113.2-27.2,147.8-71.9h75.9c13.7,0,24-17.2,24-39.9s-10.3-39.9-24-39.9
	H284.8c1.7-7.7,2.7-15.7,2.7-24v-18.2l58.4-19.5c38-12.7,71.7-35.5,97.6-66.1c33.3-39.4,51.6-89.4,51.6-141V23.9H475.4z
	 M301.7,126.5c13-4.6,26.6-8,40.3-10.1c1.8-0.3,3.5-0.7,5.3-1.1l-26,31.3l12.3,10.2l16.2-19.4l23.1,23.1
	c-49.3,32-107.3,57.9-138.2,70.8l-19-19v-28.6h-16v35.2l18.9,18.9c-2.3,0.9-4,1.6-4.9,1.9l-42.9,5.4c-14.9,1.9-28.6,9.8-37.6,21.8
	c-6.3,8.5-15.6,14-26.1,15.4l-26.9,3.8c2-27.2,12.6-52.5,29.5-72.7l13.6,27.1l45.9-9.2l-3.1-15.7l-33.9,6.8l-10.7-21.3
	c12.3-11.3,26.9-20.3,43.3-26.1l22.6-8c1-0.2,1.9-0.6,2.8-1l37-13.1l12.3,24.6v30.1h16v-24h31.9v-16h-35l-10.1-20.1L301.7,126.5z
	 M163.5,370.7l2.9,20c-46.2-4.5-82.9-41.9-86.2-88.5l29.2-4.2c14.7-2.1,27.7-9.8,36.6-21.7c6.4-8.5,16.2-14.2,26.8-15.5l34.9-4.4
	v24.5c0,11.8-5.2,22.9-14.3,30.4l-10.4,8.6C168,332.6,160.8,351.5,163.5,370.7z M191.6,127.7c0,13.1-4.3,21.2-6.8,23.3l-1.5,0.5
	c-2.2-0.6-7.7-9-7.7-23.8c0-15.5,6-24,8-24C185.6,103.8,191.6,112.3,191.6,127.7z M415.2,359.3c0,15.5-6,24-8,24c-2,0-8-8.5-8-24
	s6-24,8-24C409.2,335.3,415.2,343.8,415.2,359.3z M387.8,335.3c-2.9,6.6-4.6,14.8-4.6,24s1.7,17.4,4.6,24h-64.5l-2.4,3.2
	c-32.1,43.3-85.6,69.7-140.4,68.6c-86.7-1.6-158.8-70.5-164.2-156.9c-3.1-50.5,16.5-103.4,52.4-141.6c26.8-28.6,60-46.2,94.9-51.1
	c-2.5,6.3-3.9,13.9-3.9,22.4c0,12,2.9,22.3,7.6,29.5l-7.8,2.8c-57.2,20.3-95.6,74.7-95.6,135.4c0,61.6,50.1,111.8,111.8,111.8
	c47.6,0,88.2-29.9,104.3-71.9H387.8z M340.7,242.6l-69.3,23.1v29.7c0,50.5-39.3,91.9-88.9,95.5l-3.2-22.4c-2-13.7,3.2-27.2,13.9-36
	l10.4-8.6c9.3-7.7,15.6-18.1,18.4-29.6l20.8,15.6l9.6-12.8l-28.7-21.6V253c16.8-6.6,70.9-28.4,124.5-58.9l15.7,6.3l-16,8l7.1,14.3
	l20.4-10.2v14.8C364.3,233.4,352.8,238.6,340.7,242.6z M479,50.7c0,47.8-17,94.2-47.9,130.6c-11.7,13.8-25.2,25.9-40,36.1v-23.3
	l-25.7-10.3c16-9.7,31.6-20.1,45.7-31.1l4.2,16.8l15.5-3.9l-6-24.1c15.5-13.4,28.4-27.4,37.1-41.7l-13.7-8.2
	c-12.4,20.7-35.3,41-62,59.7l-26.3-26.3l13.3-15.9c40.3-12,77-34.4,105.9-65.3L479,50.7L479,50.7z"/>
</svg>
