<?xml version="1.0" encoding="utf-8"?>
<!-- Generator: Adobe Illustrator 23.0.1, SVG Export Plug-In . SVG Version: 6.00 Build 0)  -->
<svg version="1.1" id="Capa_1" xmlns="http://www.w3.org/2000/svg" xmlns:xlink="http://www.w3.org/1999/xlink" x="0px" y="0px"
	 viewBox="0 0 512 512" style="enable-background:new 0 0 512 512;" xml:space="preserve">
<style type="text/css">
	.st0{fill:#FFFFFF;}
</style>
<g>
	<path class="st0" d="M35.4,125.4l21.2,21.2L97.2,106l-30-30l19.4-19.4L65.4,35.4L24.8,76l30,30L35.4,125.4z"/>
	<path class="st0" d="M446.6,35.4l-21.2,21.2L444.8,76l-30,30l40.6,40.6l21.2-21.2L457.2,106l30-30L446.6,35.4z"/>
	<path class="st0" d="M86.6,455.4L67.2,436l30-30l-40.6-40.6l-21.2,21.2L54.8,406l-30,30l40.6,40.6L86.6,455.4z"/>
	<path class="st0" d="M457.2,406l19.4-19.4l-21.2-21.2L414.8,406l30,30l-19.4,19.4l21.2,21.2l40.6-40.6L457.2,406z"/>
	<path class="st0" d="M226,421c-24.9,0-45,20.1-45,45v46h60v-46h90c33.1,0,60-26.9,60-60s-26.9-60-60-60c-33.8,0-115.9,0-150,0v-30
		c5.1,0,153.5,0,150,0c33.1,0,60-26.9,60-60c0-33.1-26.9-60-60-60c-4.5,0-153.1,0-150,0v-30c4,0,157,0,150,0c33.1,0,60-26.9,60-60
		s-26.9-60-60-60h-90V0h-60v46c0,24.9,20.1,45,45,45h105v30c-20.1,0-157,0-150,0c-33.1,0-60,26.9-60,60c0,33.1,26.9,60,60,60
		c4.6,0,156.1,0,150,0v30c-4.1,0-158.4,0-150,0c-33.1,0-60,26.9-60,60c0,33.1,26.9,60,60,60c9.9,0,157.7,0,150,0v30H226z"/>
</g>
</svg>
